<?xml version="1.0" encoding="UTF-8"?>
<!DOCTYPE svg PUBLIC "-//W3C//DTD SVG 1.1//EN" "http://www.w3.org/Graphics/SVG/1.1/DTD/svg11.dtd">
<!-- Creator: CorelDRAW X7 -->
<svg xmlns="http://www.w3.org/2000/svg" xml:space="preserve" width="113.51mm" height="114.519mm" version="1.1" style="shape-rendering:geometricPrecision; text-rendering:geometricPrecision; image-rendering:optimizeQuality; fill-rule:evenodd; clip-rule:evenodd"
viewBox="0 0 2883 2908"
 xmlns:xlink="http://www.w3.org/1999/xlink">
 <defs>
  <style type="text/css">
   <![CDATA[
    .fil1 {fill:none}
    .fil0 {fill:#398860;fill-rule:nonzero}
   ]]>
  </style>
 </defs>
 <g id="Layer_x0020_1">
  <metadata id="CorelCorpID_0Corel-Layer"/>
  <path class="fil0" d="M1299 1046c19,-5 39,5 45,24 6,19 -5,39 -24,45 -99,31 -172,85 -212,149 -27,43 -40,90 -37,138 3,47 21,95 56,140 59,74 164,138 322,174 151,35 248,96 305,167 41,51 60,108 63,164 2,56 -12,110 -38,158 -37,64 -96,116 -167,140 -19,6 -39,-4 -45,-23 -7,-18 3,-38 22,-45 54,-18 99,-57 127,-107 21,-37 31,-78 29,-120 -1,-41 -16,-84 -47,-123 -48,-59 -132,-111 -265,-141 -175,-40 -293,-113 -362,-199 -45,-57 -68,-119 -71,-181 -4,-63 13,-124 48,-180 49,-78 134,-143 251,-180z"/>
  <path class="fil0" d="M1582 1118c-19,-5 -30,-25 -24,-44 5,-19 25,-30 44,-24 117,34 202,98 250,174 35,55 50,115 46,176 -3,61 -27,122 -71,179 -70,90 -195,167 -379,207 -19,4 -38,-8 -42,-27 -4,-20 8,-39 27,-43 166,-36 277,-104 338,-181 35,-45 53,-92 56,-139 3,-46 -9,-92 -35,-133 -39,-63 -110,-115 -210,-145z"/>
  <path class="fil0" d="M1266 1770c18,-6 39,3 46,22 6,18 -3,39 -22,46 -42,15 -82,51 -109,97 -22,38 -35,82 -34,128 1,46 16,94 51,138 46,58 126,111 252,148 145,42 226,112 261,188 20,44 25,90 18,133 -7,43 -26,84 -53,120 -53,69 -140,118 -237,118 -94,0 -168,-33 -218,-84 -25,-25 -44,-54 -57,-86 -13,-31 -20,-65 -20,-99 0,-65 24,-130 75,-181 14,-13 37,-13 51,1 14,14 14,36 0,50 -37,37 -54,84 -54,130 0,25 5,49 14,72 9,23 23,44 41,63 38,38 95,63 168,63 73,0 139,-38 180,-91 20,-26 34,-56 39,-87 5,-30 2,-62 -12,-92 -27,-59 -94,-114 -216,-150 -142,-41 -234,-103 -288,-172 -46,-57 -66,-120 -67,-180 -1,-60 16,-118 45,-167 35,-60 88,-107 146,-128z"/>
  <path class="fil0" d="M1444 0c64,0 123,26 165,68 42,42 68,101 68,165 0,64 -26,122 -68,165 -42,42 -101,68 -165,68 -64,0 -123,-26 -165,-68 -42,-43 -68,-101 -68,-165 0,-64 26,-123 68,-165 42,-42 101,-68 165,-68zm114 119c-29,-29 -69,-47 -114,-47 -44,0 -85,18 -114,47 -29,29 -47,69 -47,114 0,44 18,85 47,114 29,29 70,47 114,47 45,0 85,-18 114,-47 29,-29 47,-70 47,-114 0,-45 -18,-85 -47,-114z"/>
  <polygon class="fil0" points="1480,430 1476,1762 1405,1762 1408,430 "/>
  <path class="fil0" d="M1406 1966c0,-19 16,-35 36,-35 20,0 36,16 36,35l-4 881c0,20 -16,36 -36,36 -19,0 -35,-16 -35,-36l3 -881z"/>
  <path class="fil0" d="M1291 657c20,0 36,16 36,36 0,19 -16,35 -36,35 -184,1 -228,-142 -269,-277 -30,-94 -57,-184 -138,-185 -85,-1 -167,39 -261,87 -131,65 -286,142 -516,149 106,139 212,239 368,305 180,77 429,111 824,111 20,0 36,16 36,35 0,20 -16,36 -36,36 -405,0 -663,-35 -852,-116 -192,-81 -311,-207 -440,-385 -5,-6 -7,-14 -7,-22 1,-20 17,-35 37,-35 253,7 417,-74 554,-142 102,-52 191,-96 294,-94 133,2 168,115 205,235 34,110 70,227 201,227z"/>
  <path class="fil0" d="M408 674c0,-20 16,-36 36,-36 20,0 36,16 36,36l0 159c0,20 -16,36 -36,36 -20,0 -36,-16 -36,-36l0 -159z"/>
  <path class="fil0" d="M597 743c0,-20 16,-36 36,-36 19,0 36,16 36,36l0 153c0,20 -17,36 -36,36 -20,0 -36,-16 -36,-36l0 -153z"/>
  <path class="fil0" d="M778 795c0,-20 16,-36 36,-36 20,0 36,16 36,36l0 133c0,20 -16,36 -36,36 -20,0 -36,-16 -36,-36l0 -133z"/>
  <path class="fil0" d="M1022 945c0,19 -16,35 -35,35 -20,0 -36,-16 -36,-35l0 -113c0,-20 16,-36 36,-36 19,0 35,16 35,36l0 113z"/>
  <path class="fil0" d="M1592 723c-20,0 -36,-16 -36,-36 0,-19 16,-35 36,-35 131,0 167,-117 201,-227 37,-120 72,-234 205,-235 103,-2 191,42 294,93 137,69 301,150 554,143 20,-1 36,15 37,35 0,8 -3,16 -8,22 -128,178 -248,303 -440,385 -189,80 -446,116 -851,116 -20,0 -36,-16 -36,-36 0,-20 16,-36 36,-36 394,1 643,-33 823,-110 157,-66 263,-166 369,-305 -231,-7 -385,-84 -516,-150 -95,-47 -176,-87 -261,-86 -81,1 -109,90 -138,185 -41,135 -86,278 -269,277z"/>
  <path class="fil0" d="M2403 669c0,-20 16,-36 35,-36 20,0 36,16 36,36l0 159c0,20 -16,36 -36,36 -19,0 -35,-16 -35,-36l0 -159z"/>
  <path class="fil0" d="M2214 738c0,-20 16,-36 36,-36 20,0 36,16 36,36l0 153c0,19 -16,36 -36,36 -20,0 -36,-17 -36,-36l0 -153z"/>
  <path class="fil0" d="M2033 790c0,-20 16,-36 35,-36 20,0 36,16 36,36l0 133c0,20 -16,36 -36,36 -19,0 -35,-16 -35,-36l0 -133z"/>
  <path class="fil0" d="M1932 939c0,20 -16,36 -36,36 -20,0 -36,-16 -36,-36l0 -112c0,-20 16,-36 36,-36 20,0 36,16 36,36l0 112z"/>
  <ellipse class="fil1" cx="1442" cy="2056" rx="317" ry="295"/>
  <ellipse class="fil1" cx="1442" cy="1394" rx="404" ry="333"/>
  <ellipse class="fil1" cx="1439" cy="2640" rx="259" ry="233"/>
  <line class="fil1" x1="1601" y1="2311" x2="1440" y2= "2383" />
  <line class="fil1" x1="1441" y1="1751" x2="1278" y2= "1804" />
 </g>
</svg>
