<?xml version="1.0" encoding="UTF-8"?>
<!DOCTYPE svg PUBLIC "-//W3C//DTD SVG 1.1//EN" "http://www.w3.org/Graphics/SVG/1.1/DTD/svg11.dtd">
<!-- Creator: CorelDRAW X7 -->
<svg xmlns="http://www.w3.org/2000/svg" xml:space="preserve" width="113.51mm" height="114.519mm" version="1.1" style="shape-rendering:geometricPrecision; text-rendering:geometricPrecision; image-rendering:optimizeQuality; fill-rule:evenodd; clip-rule:evenodd"
viewBox="0 0 977 986"
 xmlns:xlink="http://www.w3.org/1999/xlink">
 <defs>
  <style type="text/css">
   <![CDATA[
    .fil1 {fill:none}
    .fil0 {fill:#373435;fill-rule:nonzero}
   ]]>
  </style>
 </defs>
 <g id="Layer_x0020_1">
  <metadata id="CorelCorpID_0Corel-Layer"/>
  <g id="_824766032">
   <path class="fil0" d="M441 355c6,-2 13,1 15,8 2,6 -2,13 -8,15 -34,11 -59,29 -72,51 -9,14 -14,30 -13,46 1,16 7,33 19,48 20,25 56,47 109,59 51,12 84,32 104,56 14,18 20,37 21,56 1,19 -4,38 -13,54 -12,22 -32,39 -56,47 -7,2 -14,-1 -16,-7 -2,-7 2,-14 8,-16 18,-6 34,-19 43,-36 7,-13 11,-27 10,-41 -1,-14 -6,-28 -16,-41 -16,-21 -45,-38 -90,-48 -59,-14 -100,-39 -123,-68 -15,-19 -23,-40 -24,-61 -1,-21 4,-42 16,-61 17,-27 46,-49 86,-61z"/>
   <path class="fil0" d="M536 379c-6,-2 -10,-8 -8,-15 2,-6 9,-10 15,-8 40,12 69,33 85,59 12,19 17,39 16,60 -2,21 -9,41 -24,60 -24,31 -67,57 -129,71 -6,1 -13,-3 -14,-10 -2,-6 2,-13 9,-14 56,-12 94,-35 115,-62 11,-15 18,-31 19,-47 1,-15 -4,-31 -12,-45 -14,-21 -38,-39 -72,-49z"/>
   <path class="fil0" d="M429 600c6,-2 13,1 16,8 2,6 -1,13 -7,15 -15,5 -28,17 -37,33 -8,13 -13,28 -12,44 0,15 5,31 17,46 16,20 43,38 86,50 49,15 76,38 88,64 7,15 9,31 6,46 -2,14 -9,28 -18,40 -18,24 -47,40 -80,40 -32,0 -57,-11 -74,-28 -8,-9 -15,-19 -19,-30 -5,-10 -7,-22 -7,-33 0,-22 8,-44 25,-61 5,-5 13,-5 18,0 4,4 4,12 0,17 -13,12 -19,28 -19,44 0,8 2,17 5,24 3,8 8,15 14,22 13,12 32,21 57,21 25,0 47,-13 61,-31 7,-9 12,-19 13,-29 2,-11 1,-21 -4,-32 -9,-20 -32,-38 -73,-50 -48,-14 -79,-35 -98,-59 -15,-19 -22,-40 -22,-61 -1,-20 5,-40 15,-56 12,-21 30,-37 49,-44z"/>
   <path class="fil0" d="M490 0c21,0 41,9 56,23 14,14 23,34 23,56 0,22 -9,42 -23,56 -15,14 -35,23 -56,23 -22,0 -42,-9 -56,-23 -14,-14 -23,-34 -23,-56 0,-22 9,-42 23,-56 14,-14 34,-23 56,-23zm38 40c-10,-10 -23,-16 -38,-16 -15,0 -29,6 -39,16 -10,10 -16,24 -16,39 0,15 6,29 16,39 10,10 24,16 39,16 15,0 28,-6 38,-16 10,-10 16,-24 16,-39 0,-15 -6,-29 -16,-39z"/>
   <polygon class="fil0" points="502,146 501,597 476,597 478,146 "/>
   <path class="fil0" d="M477 667c0,-7 5,-12 12,-12 7,0 12,5 12,12l-1 299c0,6 -6,12 -12,12 -7,0 -12,-6 -12,-12l1 -299z"/>
   <path class="fil0" d="M438 223c6,0 12,5 12,12 0,7 -6,12 -12,12 -63,0 -78,-48 -92,-94 -9,-32 -19,-62 -46,-63 -29,0 -57,14 -89,30 -44,22 -97,48 -175,50 36,47 72,81 125,104 61,26 146,37 279,37 7,0 13,6 13,12 0,7 -6,12 -13,12 -137,1 -224,-12 -288,-39 -65,-28 -106,-70 -150,-130 -1,-3 -2,-5 -2,-8 0,-7 6,-12 12,-12 86,3 142,-25 188,-48 35,-18 65,-32 100,-32 45,1 57,39 70,80 11,37 23,77 68,77z"/>
   <path class="fil0" d="M138 228c0,-6 6,-12 13,-12 6,0 12,6 12,12l0 54c0,7 -6,13 -12,13 -7,0 -13,-6 -13,-13l0 -54z"/>
   <path class="fil0" d="M202 252c0,-7 6,-12 13,-12 6,0 12,5 12,12l0 52c0,6 -6,12 -12,12 -7,0 -13,-6 -13,-12l0 -52z"/>
   <path class="fil0" d="M264 270c0,-7 5,-13 12,-13 7,0 12,6 12,13l0 45c0,7 -5,12 -12,12 -7,0 -12,-5 -12,-12l0 -45z"/>
   <path class="fil0" d="M347 320c0,7 -6,12 -12,12 -7,0 -13,-5 -13,-12l0 -38c0,-6 6,-12 13,-12 6,0 12,6 12,12l0 38z"/>
   <path class="fil0" d="M540 245c-7,0 -12,-5 -12,-12 0,-7 5,-12 12,-12 44,0 56,-40 68,-77 12,-41 24,-79 70,-80 34,0 64,15 99,32 47,23 102,51 188,48 7,0 12,6 12,12 1,3 0,6 -2,8 -44,60 -84,103 -149,130 -64,28 -152,40 -289,40 -7,0 -12,-6 -12,-13 0,-6 5,-12 12,-12 134,1 218,-11 279,-37 53,-23 89,-56 125,-103 -78,-3 -130,-29 -175,-51 -32,-16 -59,-30 -88,-29 -28,0 -37,30 -47,62 -14,46 -29,94 -91,94z"/>
   <path class="fil0" d="M815 227c0,-7 5,-12 12,-12 7,0 12,5 12,12l0 54c0,6 -5,12 -12,12 -7,0 -12,-6 -12,-12l0 -54z"/>
   <path class="fil0" d="M751 250c0,-7 5,-12 12,-12 7,0 12,5 12,12l0 52c0,7 -5,12 -12,12 -7,0 -12,-5 -12,-12l0 -52z"/>
   <path class="fil0" d="M689 268c0,-7 6,-12 12,-12 7,0 13,5 13,12l0 45c0,7 -6,12 -13,12 -6,0 -12,-5 -12,-12l0 -45z"/>
   <path class="fil0" d="M655 319c0,6 -5,12 -12,12 -7,0 -12,-6 -12,-12l0 -39c0,-6 5,-12 12,-12 7,0 12,6 12,12l0 39z"/>
   <line class="fil1" x1="543" y1="784" x2="488" y2= "808" />
   <line class="fil1" x1="489" y1="594" x2="433" y2= "612" />
  </g>
 </g>
</svg>
