<?xml version="1.0" encoding="UTF-8"?>
<!DOCTYPE svg PUBLIC "-//W3C//DTD SVG 1.1//EN" "http://www.w3.org/Graphics/SVG/1.1/DTD/svg11.dtd">
<!-- Creator: CorelDRAW X7 -->
<svg xmlns="http://www.w3.org/2000/svg" xml:space="preserve" width="246.486mm" height="169.132mm" version="1.1" style="shape-rendering:geometricPrecision; text-rendering:geometricPrecision; image-rendering:optimizeQuality; fill-rule:evenodd; clip-rule:evenodd"
viewBox="0 0 15402 10569"
 xmlns:xlink="http://www.w3.org/1999/xlink">
 <defs>
  <style type="text/css">
   <![CDATA[
    .fil1 {fill:none}
    .fil0 {fill:#373435;fill-rule:nonzero}
   ]]>
  </style>
 </defs>
 <g id="Layer_x0020_1">
  <metadata id="CorelCorpID_0Corel-Layer"/>
  <g id="_609076000">
   <path class="fil0" d="M7304 2575c46,-15 96,11 110,58 14,46 -11,95 -58,110 -245,77 -423,210 -522,368 -66,105 -98,222 -91,338 6,117 51,236 138,346 145,182 404,340 791,428 371,85 611,235 750,410 101,127 150,267 156,405 6,137 -29,270 -94,387 -89,159 -236,287 -410,345 -47,16 -96,-9 -112,-55 -15,-46 10,-96 56,-111 132,-45 244,-142 312,-265 50,-89 77,-191 72,-294 -4,-102 -41,-206 -117,-303 -117,-146 -324,-273 -652,-348 -430,-97 -722,-278 -889,-490 -111,-139 -168,-292 -177,-445 -9,-153 32,-305 118,-442 121,-191 331,-352 619,-442z"/>
   <path class="fil0" d="M7999 2752c-46,-14 -73,-63 -59,-109 13,-47 62,-73 109,-60 289,85 498,242 616,430 84,133 123,282 114,433 -10,150 -67,300 -175,438 -174,222 -481,412 -933,511 -48,10 -95,-20 -105,-68 -10,-47 20,-94 68,-104 409,-90 681,-255 831,-447 86,-109 131,-226 138,-341 7,-114 -22,-227 -86,-328 -97,-154 -272,-283 -518,-355z"/>
   <path class="fil0" d="M7222 4356c45,-17 96,7 113,52 16,46 -7,97 -53,113 -104,39 -201,126 -268,239 -54,94 -88,204 -85,317 2,113 39,230 126,339 113,143 310,273 621,363 355,104 555,276 641,464 50,108 62,220 44,328 -17,106 -63,206 -130,293 -131,172 -345,292 -582,292 -233,1 -414,-82 -538,-207 -61,-62 -108,-134 -140,-212 -32,-77 -48,-160 -48,-242 0,-161 59,-321 185,-446 34,-34 90,-34 124,1 34,34 34,90 0,124 -91,90 -134,205 -133,321 0,60 12,120 35,176 23,56 57,109 102,154 93,94 232,156 413,155 179,0 342,-92 442,-222 50,-65 84,-139 96,-215 13,-75 4,-153 -30,-227 -66,-145 -230,-281 -530,-368 -349,-101 -576,-253 -710,-423 -112,-142 -161,-295 -164,-444 -3,-148 39,-290 110,-410 87,-148 217,-263 359,-315z"/>
   <path class="fil0" d="M7661 0c158,0 301,64 405,168 104,104 168,247 168,405 0,158 -64,302 -168,405 -104,104 -247,168 -405,168 -159,0 -302,-64 -406,-168 -103,-103 -168,-247 -168,-405 0,-158 65,-301 168,-405 104,-104 247,-168 406,-168zm280 293c-72,-72 -171,-117 -280,-117 -110,0 -209,45 -281,117 -72,71 -116,171 -116,280 0,110 44,209 116,281 72,72 171,116 281,116 109,0 208,-44 280,-116 72,-72 116,-171 116,-281 0,-109 -44,-209 -116,-280z"/>
   <polygon class="fil0" points="7748,1058 7740,4335 7564,4335 7573,1058 "/>
   <path class="fil0" d="M7567 4839c0,-49 40,-88 88,-88 49,0 88,39 88,88l-8 2168c0,48 -40,87 -88,87 -49,0 -88,-39 -88,-87l8 -2168z"/>
   <path class="fil0" d="M7284 1616c48,0 87,40 87,88 0,49 -39,88 -87,88 -453,2 -561,-351 -663,-682 -72,-233 -139,-452 -339,-455 -210,-3 -410,97 -643,213 -322,160 -702,349 -1269,368 261,341 521,587 906,751 443,188 1056,272 2027,271 49,0 88,39 88,88 0,48 -39,87 -88,87 -996,2 -1630,-87 -2095,-284 -472,-201 -767,-510 -1083,-948 -12,-15 -18,-34 -18,-55 2,-48 42,-87 91,-85 622,18 1026,-183 1363,-351 253,-126 470,-234 723,-231 328,5 414,284 505,580 83,270 172,558 495,557z"/>
   <path class="fil0" d="M5112 1658c0,-49 40,-88 88,-88 49,0 89,39 89,88l0 391c0,49 -40,89 -89,89 -48,0 -88,-40 -88,-89l0 -391z"/>
   <path class="fil0" d="M5576 1828c0,-49 39,-88 88,-88 49,0 88,39 88,88l0 376c0,49 -39,88 -88,88 -49,0 -88,-39 -88,-88l0 -376z"/>
   <path class="fil0" d="M6023 1956c0,-49 39,-89 88,-89 48,0 88,40 88,89l0 328c0,49 -40,89 -88,89 -49,0 -88,-40 -88,-89l0 -328z"/>
   <path class="fil0" d="M6623 2324c0,49 -39,88 -88,88 -49,0 -88,-39 -88,-88l0 -276c0,-49 39,-88 88,-88 49,0 88,39 88,88l0 276z"/>
   <path class="fil0" d="M8024 1779c-49,0 -88,-39 -88,-88 0,-48 39,-87 88,-87 322,1 411,-287 495,-558 91,-296 177,-575 505,-579 253,-4 470,104 723,230 337,168 740,369 1363,351 49,-1 89,37 90,85 1,21 -6,40 -17,56 -317,437 -611,746 -1083,947 -465,198 -1099,286 -2096,285 -48,0 -88,-40 -88,-88 0,-49 40,-88 88,-88 972,1 1584,-83 2027,-271 385,-164 646,-410 907,-751 -568,-18 -948,-208 -1270,-368 -233,-116 -433,-216 -642,-213 -200,3 -268,223 -339,456 -102,331 -211,683 -663,681z"/>
   <path class="fil0" d="M10019 1645c0,-49 40,-88 88,-88 49,0 88,39 88,88l0 392c0,48 -39,88 -88,88 -48,0 -88,-40 -88,-88l0 -392z"/>
   <path class="fil0" d="M9555 1815c0,-48 40,-88 88,-88 49,0 89,40 89,88l0 377c0,48 -40,88 -89,88 -48,0 -88,-40 -88,-88l0 -377z"/>
   <path class="fil0" d="M9109 1943c0,-49 39,-88 88,-88 49,0 88,39 88,88l0 329c0,48 -39,88 -88,88 -49,0 -88,-40 -88,-88l0 -329z"/>
   <path class="fil0" d="M8861 2312c0,48 -40,88 -89,88 -48,0 -88,-40 -88,-88l0 -277c0,-48 40,-88 88,-88 49,0 89,40 89,88l0 277z"/>
   <line class="fil1" x1="8046" y1="5687" x2="7651" y2= "5864" />
   <line class="fil1" x1="7652" y1="4309" x2="7252" y2= "4439" />
   <path class="fil0" d="M876 10569c298,0 619,-109 701,-364 23,-83 0,-202 -135,-245 -119,-39 -192,0 -235,43 -89,116 -218,162 -331,162 -248,0 -413,-165 -413,-416l0 -298c0,-255 165,-423 410,-423 119,0 222,46 317,162 47,43 126,76 248,40 139,-47 149,-186 116,-258 -122,-252 -403,-344 -681,-344 -522,0 -873,324 -873,810l0 321c0,486 351,810 876,810z"/>
   <path id="1" class="fil0" d="M2692 10569c525,0 873,-324 873,-814l0 -314c0,-489 -348,-813 -873,-813 -526,0 -877,324 -877,813l0 314c0,490 351,814 877,814zm0 -404c-248,0 -414,-168 -414,-423l0 -288c0,-254 166,-426 414,-426 248,0 410,172 410,426l0 288c0,255 -162,423 -410,423z"/>
   <path id="2" class="fil0" d="M4838 8628c-232,0 -420,89 -543,244l0 -6c-6,-152 -82,-235 -218,-235 -139,0 -215,86 -215,238l0 1458c0,152 83,238 232,238 152,0 231,-86 231,-238l0 -916c0,-231 152,-383 370,-383 222,0 371,152 371,383l0 916c0,152 82,238 231,238 152,0 232,-86 232,-238l0 -988c0,-427 -275,-711 -691,-711z"/>
   <path id="3" class="fil0" d="M6587 10569c496,0 827,-215 827,-603l0 -36c0,-767 -1154,-347 -1154,-747l0 -6c0,-123 128,-205 327,-205 129,0 248,49 354,172 43,39 106,79 211,46 166,-46 202,-179 149,-261 -112,-202 -403,-301 -701,-301 -469,0 -780,201 -780,568l0 34c0,763 1141,340 1141,750l0 10c0,126 -146,212 -361,212 -139,0 -288,-50 -397,-166 -46,-39 -106,-80 -211,-49 -166,49 -212,182 -162,264 122,205 453,318 757,318z"/>
   <path id="4" class="fil0" d="M9080 8631c-149,0 -231,86 -231,238l0 933c0,221 -143,363 -354,363 -212,0 -354,-142 -354,-363l0 -933c0,-152 -83,-238 -231,-238 -149,0 -232,86 -232,238l0 1005c0,417 271,695 675,695 221,0 403,-86 525,-235 10,149 86,231 225,231 136,0 209,-86 209,-238l0 -1458c0,-152 -83,-238 -232,-238z"/>
   <path id="5" class="fil0" d="M10069 10565c139,0 248,-69 248,-188 0,-93 -50,-129 -89,-155 -57,-30 -90,-80 -90,-156l0 -1951c0,-152 -82,-238 -231,-238 -149,0 -232,86 -232,238l0 2021c0,258 159,429 394,429z"/>
   <path id="6" class="fil0" d="M11388 10172l-76 0c-99,0 -162,-69 -162,-169l0 -978 271 0c123,0 189,-67 189,-182 0,-116 -66,-182 -189,-182l-271 0 0 -291c0,-152 -79,-238 -228,-238 -146,0 -225,86 -225,238l0 291 -126 0c-122,0 -191,66 -191,182 0,115 69,182 191,182l116 0 0 1005c0,304 228,506 576,506l125 0c123,0 189,-66 189,-182 0,-116 -66,-182 -189,-182z"/>
   <path id="7" class="fil0" d="M12612 10569c525,0 873,-324 873,-814l0 -314c0,-489 -348,-813 -873,-813 -526,0 -877,324 -877,813l0 314c0,490 351,814 877,814zm0 -404c-248,0 -414,-168 -414,-423l0 -288c0,-254 166,-426 414,-426 248,0 410,172 410,426l0 288c0,255 -162,423 -410,423z"/>
   <path id="8" class="fil0" d="M15171 8631c-149,0 -231,86 -231,238l0 933c0,221 -143,363 -354,363 -212,0 -354,-142 -354,-363l0 -933c0,-152 -83,-238 -232,-238 -148,0 -231,86 -231,238l0 1005c0,417 271,695 675,695 221,0 403,-86 525,-235 10,149 86,231 225,231 136,0 208,-86 208,-238l0 -1458c0,-152 -82,-238 -231,-238z"/>
  </g>
 </g>
</svg>
