<?xml version="1.0" encoding="UTF-8"?>
<!DOCTYPE svg PUBLIC "-//W3C//DTD SVG 1.1//EN" "http://www.w3.org/Graphics/SVG/1.1/DTD/svg11.dtd">
<!-- Creator: CorelDRAW X7 -->
<svg xmlns="http://www.w3.org/2000/svg" xml:space="preserve" width="485.904mm" height="114.519mm" version="1.1" style="shape-rendering:geometricPrecision; text-rendering:geometricPrecision; image-rendering:optimizeQuality; fill-rule:evenodd; clip-rule:evenodd"
viewBox="0 0 67175 15832"
 xmlns:xlink="http://www.w3.org/1999/xlink">
 <defs>
  <style type="text/css">
   <![CDATA[
    .fil1 {fill:none}
    .fil0 {fill:#398860;fill-rule:nonzero}
   ]]>
  </style>
 </defs>
 <g id="Layer_x0020_1">
  <metadata id="CorelCorpID_0Corel-Layer"/>
  <g id="_610219488">
   <g>
    <path class="fil0" d="M7072 5697c102,-32 212,25 244,128 32,102 -26,211 -128,243 -543,170 -936,466 -1156,815 -146,233 -216,490 -202,748 15,259 115,521 307,764 321,404 893,753 1749,948 822,187 1353,520 1661,907 223,281 330,591 344,895 14,303 -64,599 -208,857 -198,353 -522,635 -908,764 -102,34 -212,-21 -246,-123 -34,-101 21,-212 122,-246 293,-97 540,-314 692,-586 110,-197 170,-421 159,-649 -10,-225 -91,-457 -260,-670 -257,-323 -716,-604 -1442,-770 -951,-216 -1596,-616 -1967,-1085 -245,-308 -372,-647 -391,-985 -19,-339 71,-675 261,-976 268,-425 733,-781 1369,-979z"/>
    <path class="fil0" d="M8611 6089c-103,-31 -162,-139 -132,-242 30,-103 138,-162 241,-132 640,188 1102,534 1364,951 186,295 272,624 251,958 -21,331 -148,664 -387,970 -385,490 -1063,911 -2064,1129 -105,23 -209,-44 -232,-149 -22,-106 45,-209 150,-232 905,-197 1507,-564 1839,-988 189,-241 289,-500 305,-755 16,-251 -49,-501 -191,-726 -214,-340 -601,-625 -1144,-784z"/>
    <path class="fil0" d="M6890 9637c101,-37 213,15 250,116 37,101 -15,213 -116,250 -229,85 -445,278 -592,529 -122,206 -195,450 -190,701 5,250 88,509 278,749 251,317 688,604 1375,804 787,229 1228,610 1419,1025 109,239 136,488 97,726 -38,234 -140,457 -288,650 -290,379 -764,644 -1287,645 -515,1 -917,-182 -1190,-458 -136,-137 -240,-297 -310,-469 -70,-171 -106,-354 -107,-537 -1,-354 132,-709 409,-985 76,-75 200,-75 275,1 76,76 76,199 0,275 -200,199 -296,454 -295,709 0,133 26,266 77,391 51,124 127,240 227,341 205,207 513,344 914,343 396,-1 756,-203 978,-492 110,-144 185,-307 213,-476 27,-165 9,-337 -67,-502 -147,-320 -509,-620 -1173,-813 -773,-225 -1274,-561 -1571,-937 -248,-313 -356,-653 -363,-982 -6,-327 88,-641 243,-906 193,-327 482,-583 794,-698z"/>
    <path class="fil0" d="M7861 0c350,0 667,142 897,371 229,230 371,547 371,897 0,350 -142,667 -371,897 -230,229 -547,371 -897,371 -350,0 -667,-142 -896,-371 -230,-230 -372,-547 -372,-897 0,-350 142,-667 372,-897 229,-229 546,-371 896,-371zm621 647c-159,-159 -378,-257 -621,-257 -242,0 -462,98 -621,257 -158,159 -257,379 -257,621 0,242 99,462 257,621 159,159 379,257 621,257 243,0 462,-98 621,-257 159,-159 257,-379 257,-621 0,-242 -98,-462 -257,-621z"/>
    <polygon class="fil0" points="8056,2341 8037,9590 7648,9590 7667,2341 "/>
    <path class="fil0" d="M7655 10705c0,-107 87,-194 195,-194 107,0 194,87 194,194l-19 4796c0,108 -87,195 -194,195 -107,0 -194,-87 -194,-195l18 -4796z"/>
    <path class="fil0" d="M7027 3576c108,0 195,87 195,194 0,107 -87,194 -195,194 -1000,4 -1240,-775 -1466,-1508 -158,-515 -308,-1001 -750,-1007 -463,-7 -906,214 -1422,471 -712,354 -1553,773 -2809,815 579,753 1154,1298 2007,1660 979,417 2335,603 4484,600 107,0 194,87 194,194 0,108 -87,195 -194,195 -2205,3 -3607,-193 -4637,-631 -1044,-443 -1695,-1127 -2395,-2095 -26,-34 -40,-77 -39,-122 3,-108 92,-192 200,-189 1377,39 2271,-405 3015,-776 560,-279 1041,-519 1600,-511 726,10 917,628 1118,1282 185,599 381,1236 1094,1234z"/>
    <path class="fil0" d="M2223 3668c0,-108 88,-195 195,-195 108,0 195,87 195,195l0 866c0,108 -87,195 -195,195 -107,0 -195,-87 -195,-195l0 -866z"/>
    <path class="fil0" d="M3249 4044c0,-108 88,-195 195,-195 108,0 195,87 195,195l0 833c0,108 -87,195 -195,195 -107,0 -195,-87 -195,-195l0 -833z"/>
    <path class="fil0" d="M4237 4327c0,-108 88,-195 195,-195 108,0 195,87 195,195l0 727c0,108 -87,195 -195,195 -107,0 -195,-87 -195,-195l0 -727z"/>
    <path class="fil0" d="M5566 5142c0,108 -87,195 -195,195 -107,0 -195,-87 -195,-195l0 -611c0,-108 88,-195 195,-195 108,0 195,87 195,195l0 611z"/>
    <path class="fil0" d="M8665 3936c-107,0 -194,-87 -194,-194 0,-107 87,-194 194,-194 714,2 910,-635 1094,-1234 202,-654 392,-1272 1118,-1282 559,-8 1040,232 1600,511 745,371 1638,815 3016,776 107,-3 196,81 199,189 2,45 -13,88 -38,122 -700,968 -1352,1652 -2396,2095 -1029,438 -2431,634 -4637,631 -107,0 -194,-87 -194,-195 0,-107 87,-194 194,-194 2149,3 3505,-183 4485,-600 852,-362 1428,-907 2006,-1660 -1256,-42 -2097,-461 -2809,-815 -515,-257 -958,-478 -1421,-471 -442,6 -592,492 -751,1007 -225,733 -465,1512 -1466,1508z"/>
    <path class="fil0" d="M13079 3640c0,-108 87,-196 195,-196 108,0 195,88 195,196l0 866c0,108 -87,195 -195,195 -108,0 -195,-87 -195,-195l0 -866z"/>
    <path class="fil0" d="M12053 4016c0,-108 87,-195 195,-195 108,0 195,87 195,195l0 833c0,108 -87,195 -195,195 -108,0 -195,-87 -195,-195l0 -833z"/>
    <path class="fil0" d="M11065 4299c0,-108 87,-195 195,-195 108,0 195,87 195,195l0 727c0,108 -87,195 -195,195 -108,0 -195,-87 -195,-195l0 -727z"/>
    <path class="fil0" d="M10516 5114c0,108 -87,195 -195,195 -108,0 -195,-87 -195,-195l0 -611c0,-108 87,-195 195,-195 108,0 195,87 195,195l0 611z"/>
    <line class="fil1" x1="8713" y1="12582" x2="7841" y2= "12973" />
    <line class="fil1" x1="7843" y1="9533" x2="6957" y2= "9820" />
   </g>
   <path class="fil0" d="M24325 11521c878,0 1824,-322 2068,-1073 68,-244 0,-595 -400,-722 -351,-117 -565,0 -692,127 -264,341 -644,478 -976,478 -731,0 -1219,-488 -1219,-1229l0 -878c0,-751 488,-1248 1210,-1248 351,0 653,136 936,478 136,126 371,224 732,117 409,-137 438,-547 341,-761 -361,-742 -1190,-1015 -2009,-1015 -1542,0 -2576,956 -2576,2390l0 946c0,1434 1034,2390 2585,2390z"/>
   <path id="1" class="fil0" d="M29680 11521c1551,0 2575,-956 2575,-2399l0 -927c0,-1444 -1024,-2400 -2575,-2400 -1551,0 -2585,956 -2585,2400l0 927c0,1443 1034,2399 2585,2399zm0 -1190c-731,0 -1219,-497 -1219,-1249l0 -848c0,-751 488,-1258 1219,-1258 732,0 1210,507 1210,1258l0 848c0,752 -478,1249 -1210,1249z"/>
   <path id="2" class="fil0" d="M36011 5795c-683,0 -1239,264 -1600,722l0 -19c-19,-449 -244,-693 -644,-693 -409,0 -634,254 -634,702l0 4302c0,449 244,702 683,702 449,0 683,-253 683,-702l0 -2702c0,-683 449,-1131 1092,-1131 654,0 1093,448 1093,1131l0 2702c0,449 244,702 683,702 448,0 682,-253 682,-702l0 -2917c0,-1258 -809,-2097 -2038,-2097z"/>
   <path id="3" class="fil0" d="M41171 11521c1463,0 2438,-634 2438,-1777l0 -107c0,-2262 -3404,-1024 -3404,-2203l0 -19c0,-361 381,-605 966,-605 380,0 731,146 1043,507 127,117 313,234 625,137 487,-137 595,-527 439,-771 -332,-595 -1190,-888 -2068,-888 -1385,0 -2302,595 -2302,1678l0 98c0,2253 3365,1003 3365,2214l0 29c0,371 -429,624 -1063,624 -410,0 -849,-146 -1171,-487 -136,-117 -312,-236 -624,-147 -488,147 -624,537 -478,781 361,604 1336,936 2234,936z"/>
   <path id="4" class="fil0" d="M48525 5805c-438,0 -682,254 -682,702l0 2751c0,654 -420,1073 -1044,1073 -624,0 -1044,-419 -1044,-1073l0 -2751c0,-448 -244,-702 -683,-702 -438,0 -682,254 -682,702l0 2966c0,1229 800,2048 1990,2048 653,0 1190,-254 1550,-693 30,439 254,683 664,683 400,0 614,-253 614,-702l0 -4302c0,-448 -244,-702 -683,-702z"/>
   <path id="5" class="fil0" d="M51442 11511c410,0 732,-205 732,-556 0,-273 -147,-380 -264,-458 -166,-88 -263,-234 -263,-459l0 -5755c0,-448 -244,-702 -683,-702 -439,0 -683,254 -683,702l0 5960c0,761 468,1268 1161,1268z"/>
   <path id="6" class="fil0" d="M55334 10351l-224 0c-293,0 -478,-205 -478,-498l0 -2887 799 0c361,0 556,-195 556,-537 0,-341 -195,-536 -556,-536l-799 0 0 -859c0,-448 -235,-702 -673,-702 -430,0 -664,254 -664,702l0 859 -370 0c-361,0 -566,195 -566,536 0,342 205,537 566,537l341 0 0 2965c0,897 673,1492 1697,1492l371 0c361,0 556,-195 556,-536 0,-341 -195,-536 -556,-536z"/>
   <path id="7" class="fil0" d="M58943 11521c1551,0 2575,-956 2575,-2399l0 -927c0,-1444 -1024,-2400 -2575,-2400 -1551,0 -2585,956 -2585,2400l0 927c0,1443 1034,2399 2585,2399zm0 -1190c-732,0 -1219,-497 -1219,-1249l0 -848c0,-751 487,-1258 1219,-1258 731,0 1209,507 1209,1258l0 848c0,752 -478,1249 -1209,1249z"/>
   <path id="8" class="fil0" d="M66493 5805c-439,0 -683,254 -683,702l0 2751c0,654 -420,1073 -1044,1073 -624,0 -1044,-419 -1044,-1073l0 -2751c0,-448 -243,-702 -682,-702 -439,0 -683,254 -683,702l0 2966c0,1229 800,2048 1990,2048 653,0 1190,-254 1551,-693 29,439 253,683 663,683 400,0 614,-253 614,-702l0 -4302c0,-448 -243,-702 -682,-702z"/>
  </g>
 </g>
</svg>
