<?xml version="1.0" encoding="UTF-8"?>
<!DOCTYPE svg PUBLIC "-//W3C//DTD SVG 1.1//EN" "http://www.w3.org/Graphics/SVG/1.1/DTD/svg11.dtd">
<!-- Creator: CorelDRAW X7 -->
<svg xmlns="http://www.w3.org/2000/svg" xml:space="preserve" width="328.648mm" height="57.4323mm" version="1.1" style="shape-rendering:geometricPrecision; text-rendering:geometricPrecision; image-rendering:optimizeQuality; fill-rule:evenodd; clip-rule:evenodd"
viewBox="0 0 7142 1248"
 xmlns:xlink="http://www.w3.org/1999/xlink">
 <defs>
  <style type="text/css">
   <![CDATA[
    .fil0 {fill:#398860;fill-rule:nonzero}
   ]]>
  </style>
 </defs>
 <g id="Layer_x0020_1">
  <metadata id="CorelCorpID_0Corel-Layer"/>
  <path class="fil0" d="M406 1248c138,0 287,-50 325,-169 11,-38 0,-93 -62,-113 -56,-18 -89,0 -109,20 -42,54 -102,75 -154,75 -115,0 -191,-77 -191,-193l0 -138c0,-118 76,-196 190,-196 55,0 103,21 147,75 21,20 58,35 115,18 64,-21 69,-86 54,-119 -57,-117 -187,-160 -316,-160 -242,0 -405,150 -405,376l0 148c0,226 163,376 406,376z"/>
  <path id="1" class="fil0" d="M1248 1248c244,0 405,-150 405,-377l0 -146c0,-227 -161,-377 -405,-377 -244,0 -406,150 -406,377l0 146c0,227 162,377 406,377zm0 -187c-115,0 -192,-78 -192,-196l0 -134c0,-118 77,-197 192,-197 115,0 190,79 190,197l0 134c0,118 -75,196 -190,196z"/>
  <path id="2" class="fil0" d="M2243 348c-107,0 -194,41 -251,114l0 -4c-3,-70 -39,-108 -101,-108 -65,0 -100,39 -100,110l0 676c0,71 38,111 107,111 71,0 108,-40 108,-111l0 -425c0,-107 70,-177 171,-177 103,0 172,70 172,177l0 425c0,71 38,111 107,111 71,0 108,-40 108,-111l0 -458c0,-198 -127,-330 -321,-330z"/>
  <path id="3" class="fil0" d="M3054 1248c230,0 384,-100 384,-279l0 -17c0,-356 -535,-161 -535,-346l0 -3c0,-57 59,-95 151,-95 60,0 115,23 165,79 19,19 49,37 98,22 76,-22 93,-83 69,-121 -52,-94 -187,-140 -325,-140 -218,0 -362,94 -362,264l0 15c0,354 529,158 529,348l0 5c0,58 -68,98 -167,98 -65,0 -134,-23 -184,-77 -22,-18 -49,-37 -99,-23 -76,23 -98,85 -75,123 57,95 210,147 351,147z"/>
  <path id="4" class="fil0" d="M4211 350c-69,0 -108,39 -108,110l0 432c0,103 -66,169 -164,169 -98,0 -164,-66 -164,-169l0 -432c0,-71 -38,-110 -107,-110 -69,0 -108,39 -108,110l0 466c0,193 126,322 313,322 103,0 187,-40 244,-109 5,69 40,108 104,108 63,0 97,-40 97,-111l0 -676c0,-71 -38,-110 -107,-110z"/>
  <path id="5" class="fil0" d="M4669 1247c64,0 115,-33 115,-88 0,-43 -23,-60 -41,-72 -26,-14 -42,-37 -42,-72l0 -905c0,-70 -38,-110 -107,-110 -69,0 -107,40 -107,110l0 937c0,120 73,200 182,200z"/>
  <path id="6" class="fil0" d="M5281 1064l-35 0c-46,0 -76,-32 -76,-78l0 -454 126 0c57,0 88,-31 88,-84 0,-54 -31,-85 -88,-85l-126 0 0 -135c0,-70 -36,-110 -105,-110 -68,0 -105,40 -105,110l0 135 -58 0c-57,0 -89,31 -89,85 0,53 32,84 89,84l54 0 0 466c0,141 106,235 267,235l58 0c57,0 87,-31 87,-85 0,-53 -30,-84 -87,-84z"/>
  <path id="7" class="fil0" d="M5848 1248c244,0 405,-150 405,-377l0 -146c0,-227 -161,-377 -405,-377 -244,0 -406,150 -406,377l0 146c0,227 162,377 406,377zm0 -187c-115,0 -191,-78 -191,-196l0 -134c0,-118 76,-197 191,-197 115,0 190,79 190,197l0 134c0,118 -75,196 -190,196z"/>
  <path id="8" class="fil0" d="M7035 350c-69,0 -107,39 -107,110l0 432c0,103 -66,169 -164,169 -99,0 -164,-66 -164,-169l0 -432c0,-71 -39,-110 -108,-110 -69,0 -107,39 -107,110l0 466c0,193 126,322 313,322 102,0 187,-40 243,-109 5,69 40,108 105,108 63,0 96,-40 96,-111l0 -676c0,-71 -38,-110 -107,-110z"/>
 </g>
</svg>
